<svg id="Layer_1" data-name="Layer 1" xmlns="http://www.w3.org/2000/svg" viewBox="0 0 59.09 64.25">
  <title>nav-logo</title>
  <path d="M17.29,13.66,9.88,1.17l-.71,2L8.12,6l-.7,2" transform="translate(0 0)" fill="#3d9bc2" stroke="#3d9bc2" stroke-miterlimit="10"/>
  <path d="M17.29,14.12a.47.47,0,0,1-.4-.23L10,2.25,7.86,8.13A.47.47,0,1,1,7,7.82L9.45,1A.47.47,0,0,1,9.84.7a.45.45,0,0,1,.44.23l7.4,12.49a.47.47,0,0,1-.4.7Z" transform="translate(0 0)" fill="#3d9bc2" stroke="#3d9bc2" stroke-miterlimit="10"/>
  <polygon points="17.42 60.39 6.43 57.72 6.43 16.8 17.42 19.47 17.42 60.39" fill="#3d9bc2" stroke="#3d9bc2" stroke-miterlimit="10"/>
  <path d="M17.42,60.85h-.11l-11-2.67A.47.47,0,0,1,6,57.72V16.8a.47.47,0,0,1,.48-.46h.1l11,2.67a.47.47,0,0,1,.36.45V60.39a.47.47,0,0,1-.47.47h-.05ZM6.9,57.35,17,59.8v-40L6.9,17.39Z" transform="translate(0 0)" fill="#3d9bc2" stroke="#3d9bc2" stroke-miterlimit="10"/>
  <polyline points="17.39 13.87 17.45 19.48 7.92 17.16" fill="#3d9bc2" stroke="#3d9bc2" stroke-miterlimit="10"/>
  <path d="M17.45,19.94h-.11L7.81,17.61a.47.47,0,0,1,.19-.9l9,2.18v-5a.47.47,0,0,1,.46-.47h0a.47.47,0,0,1,.47.46L18,19.49a.47.47,0,0,1-.47.47Z" transform="translate(0 0)" fill="#3d9bc2" stroke="#3d9bc2" stroke-miterlimit="10"/>
  <polygon points="1.27 60.57 6.43 57.72 6.43 16.8 1.27 19.65 1.27 60.57" fill="#3d9bc2" stroke="#3d9bc2" stroke-miterlimit="10"/>
  <path d="M1.27,61a.47.47,0,0,1-.47-.47h0V19.65a.47.47,0,0,1,.2-.41l5.17-2.85a.47.47,0,0,1,.69.41V57.72a.47.47,0,0,1-.24.41L1.49,61A.46.46,0,0,1,1.27,61Zm.47-41.11V59.78L6,57.44V17.59Z" transform="translate(0 0)" fill="#3d9bc2" stroke="#3d9bc2" stroke-miterlimit="10"/>
  <polyline points="1.24 16.04 1.27 19.65 6.45 17.02 6.41 14.38" fill="#3d9bc2" stroke="#3d9bc2" stroke-miterlimit="10"/>
  <path d="M1.27,20.11a.47.47,0,0,1-.47-.46L.78,16a.47.47,0,0,1,.93,0v2.86L6,16.74V14.38a.47.47,0,0,1,.46-.47h0a.47.47,0,0,1,.47.46V17a.47.47,0,0,1-.26.42L1.48,20.06A.47.47,0,0,1,1.27,20.11Z" transform="translate(0 0)" fill="#3d9bc2" stroke="#3d9bc2" stroke-miterlimit="10"/>
  <path d="M17.25,44.64a.23.23,0,0,1-.19-.1L11.76,37a.23.23,0,1,1,.38-.27h0l5.31,7.5a.23.23,0,0,1-.19.37Z" transform="translate(0 0)" fill="#3d9bc2" stroke="#3d9bc2" stroke-miterlimit="10"/>
  <path d="M11.94,37.06a.22.22,0,0,1-.23-.2V29.33a.22.22,0,0,1,.23-.2.23.23,0,0,1,.23.2v7.52a.22.22,0,0,1-.23.2Z" transform="translate(0 0)" fill="#3d9bc2" stroke="#3d9bc2" stroke-miterlimit="10"/>
  <ellipse cx="11.93" cy="33.29" rx="1.1" ry="1.47" transform="translate(-15.04 10.43) rotate(-30)" fill="#3d9bc2" stroke="#3d9bc2" stroke-miterlimit="10"/>
  <path d="M12.23,34.9a1.38,1.38,0,0,1-.54-.12,2.07,2.07,0,0,1-1.18-2,1.15,1.15,0,0,1,1.67-1,2.07,2.07,0,0,1,1.18,2,1.2,1.2,0,0,1-.57.94A1.09,1.09,0,0,1,12.23,34.9Zm-.59-2.77a.64.64,0,0,0-.32.08h0a.75.75,0,0,0-.34.59,1.6,1.6,0,0,0,.9,1.56.69.69,0,0,0,1-.59A1.6,1.6,0,0,0,12,32.2a.91.91,0,0,0-.36-.08Z" transform="translate(0 0)" fill="#3d9bc2" stroke="#3d9bc2" stroke-miterlimit="10"/>
  <path d="M1.61,54.82a.23.23,0,0,1-.13,0,.23.23,0,0,1-.06-.32h0l2.21-3.12A.23.23,0,0,1,4,51.6L1.8,54.73A.23.23,0,0,1,1.61,54.82Z" transform="translate(0 0)" fill="#3d9bc2" stroke="#3d9bc2" stroke-miterlimit="10"/>
  <path d="M3.82,51.7h0a.23.23,0,0,1-.23-.23V44.22A.23.23,0,0,1,3.83,44h0a.23.23,0,0,1,.23.23v7.25a.23.23,0,0,1-.24.22Z" transform="translate(0 0)" fill="#3d9bc2" stroke="#3d9bc2" stroke-miterlimit="10"/>
  <ellipse cx="3.83" cy="44.11" rx="1.33" ry="1" transform="translate(-36.28 25.38) rotate(-60)" fill="#3d9bc2" stroke="#3d9bc2" stroke-miterlimit="10"/>
  <path d="M3.56,45.61A1,1,0,0,1,3,45.47a1.43,1.43,0,0,1-.28-2,1.43,1.43,0,0,1,1.84-.74,1.11,1.11,0,0,1,.53.86,1.89,1.89,0,0,1-1,1.91A1.27,1.27,0,0,1,3.56,45.61ZM4.1,43.1a1.18,1.18,0,0,0-.93.64,1,1,0,0,0,.11,1.33.66.66,0,0,0,.6,0,1.43,1.43,0,0,0,.8-1.39.66.66,0,0,0-.3-.52A.55.55,0,0,0,4.1,43.1Z" transform="translate(0 0)" fill="#3d9bc2" stroke="#3d9bc2" stroke-miterlimit="10"/>
  <polygon points="12.06 63.27 1.37 60.64 6.65 57.77 17.34 60.41 12.06 63.27" fill="#3d9bc2" stroke="#3d9bc2" stroke-miterlimit="10"/>
  <path d="M12.06,63.74H12L1.26,61.09a.47.47,0,0,1-.11-.86l5.28-2.86a.47.47,0,0,1,.33,0L17.46,60a.47.47,0,0,1,.11.86l-5.28,2.86A.47.47,0,0,1,12.06,63.74ZM2.65,60.47,12,62.78l4.06-2.2L6.72,58.27Z" transform="translate(0 0)" fill="#3d9bc2" stroke="#3d9bc2" stroke-miterlimit="10"/>
  <polygon points="7.43 62.15 3.63 61.22 9.01 58.3 12.81 59.23 7.43 62.15" fill="#3d9bc2" stroke="#3d9bc2" stroke-miterlimit="10"/>
  <path d="M7.43,62.38h0l-3.8-.93A.23.23,0,0,1,3.52,61L8.9,58.09a.23.23,0,0,1,.17,0l3.8.93a.23.23,0,0,1,.06.43l-5.39,2.9ZM4.27,61.13l3.13.77,4.77-2.59L9,58.54Z" transform="translate(0 0)" fill="#3d9bc2" stroke="#3d9bc2" stroke-miterlimit="10"/>
  <path d="M1.35,27.07a.23.23,0,0,1-.1-.44l2-1a.23.23,0,0,1,.2.42h0l-2,1Z" transform="translate(0 0)" fill="#3d9bc2" stroke="#3d9bc2" stroke-miterlimit="10"/>
  <path d="M17.42,49.26h-.1L12,46.65a.23.23,0,0,1,.2-.42l5.31,2.59a.23.23,0,0,1-.1.44Z" transform="translate(0 0)" fill="#3d9bc2" stroke="#3d9bc2" stroke-miterlimit="10"/>
  <ellipse cx="12.14" cy="46.45" rx="1" ry="1.34" fill="#3d9bc2" stroke="#3d9bc2" stroke-miterlimit="10"/>
  <path d="M12.14,48a1.62,1.62,0,0,1,0-3.15,1.62,1.62,0,0,1,0,3.15Zm0-2.68c-.42,0-.77.51-.77,1.11s.35,1.11.77,1.11.77-.51.77-1.11-.35-1.09-.77-1.09Z" transform="translate(0 0)" fill="#3d9bc2" stroke="#3d9bc2" stroke-miterlimit="10"/>
  <polygon points="8.21 38.23 6.43 37.82 6.43 31.16 8.21 31.57 8.21 38.23" fill="#3d9bc2" stroke="#3d9bc2" stroke-miterlimit="10"/>
  <path d="M8.21,38.46H8.16L6.38,38a.23.23,0,0,1-.18-.23v-6.6a.23.23,0,0,1,.22-.24h.06l1.78.41a.23.23,0,0,1,.18.23v6.66a.23.23,0,0,1-.23.23Zm-1.54-.83,1.31.3V31.76l-1.31-.3Z" transform="translate(0 0)" fill="#3d9bc2" stroke="#3d9bc2" stroke-miterlimit="10"/>
  <polygon points="2.72 39.74 6.56 37.82 6.56 31.16 2.72 33.09 2.72 39.74" fill="#3d9bc2" stroke="#3d9bc2" stroke-miterlimit="10"/>
  <path d="M2.72,40a.24.24,0,0,1-.12,0,.23.23,0,0,1-.11-.2V33.09a.23.23,0,0,1,.13-.21L6.46,31a.23.23,0,0,1,.34.21v6.66a.23.23,0,0,1-.13.21L2.82,40ZM3,33.25v6.14L6.33,37.7V31.54Z" transform="translate(0 0)" fill="#3d9bc2" stroke="#3d9bc2" stroke-miterlimit="10"/>
  <path d="M6.43,18.58A.47.47,0,0,1,6,18.11V12.83a.47.47,0,1,1,.93,0v5.28a.47.47,0,0,1-.47.47Z" transform="translate(0 0)" fill="#3d9bc2" stroke="#3d9bc2" stroke-miterlimit="10"/>
  <path d="M6.14,14.58C6,14.87,5,17.31,3.54,17.27A2.5,2.5,0,0,1,1.66,15.7c-.2-.44-.79-2,1.5-6,1.84-3.17,4.6-6.34,5.21-6S6.68,6.56,6.6,11A8.54,8.54,0,0,1,6.14,14.58Z" transform="translate(0 0)" fill="#3d9bc2" stroke="#3d9bc2" stroke-miterlimit="10"/>
  <path d="M3.15,9.74,9.72,1.45" transform="translate(0 0)" fill="#3d9bc2" stroke="#3d9bc2" stroke-miterlimit="10"/>
  <path d="M3.15,10.2a.47.47,0,0,1-.36-.76L9.35,1.16a.47.47,0,0,1,.8.49l-.07.09L3.52,10A.46.46,0,0,1,3.15,10.2Z" transform="translate(0 0)" fill="#3d9bc2" stroke="#3d9bc2" stroke-miterlimit="10"/>
  <path d="M1.25,16.36a10.83,10.83,0,0,1,0-1.34,11,11,0,0,1,1.51-4.68A10.8,10.8,0,0,1,4,8.7" transform="translate(0 0)" fill="#3d9bc2" stroke="#3d9bc2" stroke-miterlimit="10"/>
  <path d="M1.25,16.82a.47.47,0,0,1-.47-.45,11.29,11.29,0,0,1,2.86-8,.47.47,0,0,1,.7.62,10.34,10.34,0,0,0-2.62,7.33.47.47,0,0,1-.45.48Z" transform="translate(0 0)" fill="#3d9bc2" stroke="#3d9bc2" stroke-miterlimit="10"/>
  <path d="M6.43,15.3A18.9,18.9,0,0,1,7.48,7.81" transform="translate(0 0)" fill="#3d9bc2" stroke="#3d9bc2" stroke-miterlimit="10"/>
  <path d="M6.43,15.76A.47.47,0,0,1,6,15.32,19.36,19.36,0,0,1,7,7.66.49.49,0,0,1,7.92,8h0a18.43,18.43,0,0,0-1,7.3.47.47,0,0,1-.44.49Z" transform="translate(0 0)" fill="#3d9bc2" stroke="#3d9bc2" stroke-miterlimit="10"/>
  <path d="M17.4,14.35h-.06L6.75,11.77a.23.23,0,0,1-.17-.28h0a.23.23,0,0,1,.28-.17h0L17.45,13.9a.23.23,0,0,1,0,.46Z" transform="translate(0 0)" fill="#3d9bc2" stroke="#3d9bc2" stroke-miterlimit="10"/>
  <path d="M4,14.71H4a.7.7,0,0,1-.7-.7V5.93a.7.7,0,0,1,.7-.7H4a.7.7,0,0,1,.7.7V14a.7.7,0,0,1-.69.71Z" transform="translate(0 0)" fill="#3d9bc2" stroke="#3d9bc2" stroke-miterlimit="10"/>
  <polygon points="5.22 14.16 3.08 16.15 3.33 10.34 4.74 8.49 5.22 14.16" fill="#3d9bc2" stroke="#3d9bc2" stroke-miterlimit="10"/>
  <polygon points="8.82 58.09 12.62 58.99 12.57 51.99 8.93 51.16 8.82 58.09" fill="#3d9bc2" stroke="#3d9bc2" stroke-miterlimit="10"/>
  <path d="M12.62,59.22h-.05l-3.8-.9a.23.23,0,0,1-.18-.23l.1-6.93A.2.2,0,0,1,9,51l3.64.83a.23.23,0,0,1,.18.23l.05,7a.23.23,0,0,1-.23.23ZM9.06,57.91l3.33.79V52.18l-3.18-.72Z" transform="translate(0 0)" fill="#3d9bc2" stroke="#3d9bc2" stroke-miterlimit="10"/>
  <ellipse cx="3.65" cy="25.71" rx="1.33" ry="1" transform="translate(-20.44 16.02) rotate(-60)" fill="#3d9bc2" stroke="#3d9bc2" stroke-miterlimit="10"/>
  <path d="M3.39,27.2a1,1,0,0,1-.51-.14,1.11,1.11,0,0,1-.53-.86,1.9,1.9,0,0,1,1.08-1.87,1.11,1.11,0,0,1,1,0h0a1.11,1.11,0,0,1,.53.86,1.89,1.89,0,0,1-1.08,1.87A1.27,1.27,0,0,1,3.39,27.2Zm.54-2.51a.8.8,0,0,0-.32.07,1.43,1.43,0,0,0-.8,1.39.66.66,0,0,0,.3.51.66.66,0,0,0,.6,0,1.43,1.43,0,0,0,.8-1.39.66.66,0,0,0-.3-.52h0a.56.56,0,0,0-.29-.06Z" transform="translate(0 0)" fill="#3d9bc2" stroke="#3d9bc2" stroke-miterlimit="10"/>
  <polyline points="15.65 28.67 15.71 22.11 10.07 20.63" fill="#3d9bc2" stroke="#3d9bc2" stroke-miterlimit="10"/>
  <path d="M15.65,28.93h0a.26.26,0,0,1-.26-.26h0l.05-6.36L10,20.88a.26.26,0,1,1,.07-.51h.06l5.64,1.47a.26.26,0,0,1,.19.25l-.05,6.56a.26.26,0,0,1-.25.27Z" transform="translate(0 0)" fill="#3d9bc2" stroke="#3d9bc2" stroke-miterlimit="10"/>
  <polyline points="8.67 28.31 14.21 29.73 15.63 28.7" fill="#3d9bc2" stroke="#3d9bc2" stroke-miterlimit="10"/>
  <path d="M14.21,30h-.06L8.6,28.56A.26.26,0,1,1,8.67,28h.06l5.43,1.39,1.32-1a.26.26,0,0,1,.3.42l-1.42,1A.26.26,0,0,1,14.21,30Z" transform="translate(0 0)" fill="#3d9bc2" stroke="#3d9bc2" stroke-miterlimit="10"/>
  <polyline points="10.06 20.64 8.7 21.62 8.64 28.18" fill="#3d9bc2" stroke="#3d9bc2" stroke-miterlimit="10"/>
  <path d="M8.64,28.44h0a.26.26,0,0,1-.26-.26h0l.06-6.56a.26.26,0,0,1,.11-.21l1.37-1a.26.26,0,1,1,.35.38l-.05,0L9,21.75l-.06,6.43a.26.26,0,0,1-.26.26Z" transform="translate(0 0)" fill="#3d9bc2" stroke="#3d9bc2" stroke-miterlimit="10"/>
  <ellipse cx="12.35" cy="24.84" rx="1.74" ry="2.33" transform="translate(-10.86 9.66) rotate(-30.39)" fill="#3d9bc2" stroke="#3d9bc2" stroke-miterlimit="10"/>
  <path d="M12.82,27.24a2,2,0,0,1-.79-.17,3,3,0,0,1-1.38-1.25,2.32,2.32,0,0,1,.4-3.19,1.76,1.76,0,0,1,1.6,0A3,3,0,0,1,14,23.84,2.32,2.32,0,0,1,13.6,27,1.6,1.6,0,0,1,12.82,27.24Zm-.95-4.38a1.15,1.15,0,0,0-.59.16h0A1.89,1.89,0,0,0,11,25.6a2.53,2.53,0,0,0,1.17,1.07,1.33,1.33,0,0,0,1.21,0,1.89,1.89,0,0,0,.25-2.58A2.53,2.53,0,0,0,12.49,23,1.6,1.6,0,0,0,11.87,22.86Zm-.7,0Z" transform="translate(0 0)" fill="#3d9bc2" stroke="#3d9bc2" stroke-miterlimit="10"/>
  <path d="M17.4,13.87l.06,5.61L6.45,17a38,38,0,0,1,.11-4.15,27.09,27.09,0,0,1,.85-5.39A21.77,21.77,0,0,1,10,1.69" transform="translate(0 0)" fill="#97d0ed"/>
  <path d="M17.29,13.66,9.88,1.17l-.71,2L8.12,6l-.7,2" transform="translate(0 0)" fill="#97d0ed"/>
  <path d="M17.29,14.12a.47.47,0,0,1-.4-.23L10,2.25,7.86,8.13A.47.47,0,1,1,7,7.82L9.45,1A.47.47,0,0,1,9.84.7a.45.45,0,0,1,.44.23l7.4,12.49a.47.47,0,0,1-.4.7Z" transform="translate(0 0)" fill="#3d9bc2"/>
  <polygon points="17.42 60.39 6.43 57.72 6.43 16.8 17.42 19.47 17.42 60.39" fill="#97d0ed"/>
  <path d="M17.42,60.85h-.11l-11-2.67A.47.47,0,0,1,6,57.72V16.8a.47.47,0,0,1,.48-.46h.1l11,2.67a.47.47,0,0,1,.36.45V60.39a.47.47,0,0,1-.47.47h-.05ZM6.9,57.35,17,59.8v-40L6.9,17.39Z" transform="translate(0 0)" fill="#3d9bc2"/>
  <path d="M17.45,19.94h-.11L7.81,17.61a.47.47,0,0,1,.19-.9l9,2.18v-5a.47.47,0,0,1,.46-.47h0a.47.47,0,0,1,.47.46L18,19.49a.47.47,0,0,1-.47.47Z" transform="translate(0 0)" fill="#3d9bc2"/>
  <polygon points="1.27 60.57 6.43 57.72 6.43 16.8 1.27 19.65 1.27 60.57" fill="#80c6dd"/>
  <path d="M1.27,61a.47.47,0,0,1-.47-.47h0V19.65a.47.47,0,0,1,.2-.41l5.17-2.85a.47.47,0,0,1,.69.41V57.72a.47.47,0,0,1-.24.41L1.49,61A.46.46,0,0,1,1.27,61Zm.47-41.11V59.78L6,57.44V17.59Z" transform="translate(0 0)" fill="#3d9bc2"/>
  <polyline points="1.24 16.04 1.27 19.65 6.45 17.02 6.41 14.38" fill="#80c6dd"/>
  <path d="M1.27,20.11a.47.47,0,0,1-.47-.46L.78,16a.47.47,0,0,1,.93,0v2.86L6,16.74V14.38a.47.47,0,0,1,.46-.47h0a.47.47,0,0,1,.47.46V17a.47.47,0,0,1-.26.42L1.48,20.06A.47.47,0,0,1,1.27,20.11Z" transform="translate(0 0)" fill="#3d9bc2"/>
  <path d="M17.25,44.64a.23.23,0,0,1-.19-.1L11.76,37a.23.23,0,1,1,.38-.27h0l5.31,7.5a.23.23,0,0,1-.19.37Z" transform="translate(0 0)" fill="#3d9bc2" stroke="#3d9bc2" stroke-miterlimit="10" stroke-width="0.25"/>
  <path d="M11.94,37.06a.22.22,0,0,1-.23-.2V29.33a.22.22,0,0,1,.23-.2.23.23,0,0,1,.23.2v7.52a.22.22,0,0,1-.23.2Z" transform="translate(0 0)" fill="#3d9bc2" stroke="#3d9bc2" stroke-miterlimit="10" stroke-width="0.25"/>
  <ellipse cx="11.93" cy="33.29" rx="1.1" ry="1.47" transform="translate(-15.04 10.43) rotate(-30)" fill="#98cfec" stroke="#3d9bc2" stroke-miterlimit="10" stroke-width="0.25"/>
  <path d="M12.23,34.9a1.38,1.38,0,0,1-.54-.12,2.07,2.07,0,0,1-1.18-2,1.15,1.15,0,0,1,1.67-1,2.07,2.07,0,0,1,1.18,2,1.2,1.2,0,0,1-.57.94A1.09,1.09,0,0,1,12.23,34.9Zm-.59-2.77a.64.64,0,0,0-.32.08h0a.75.75,0,0,0-.34.59,1.6,1.6,0,0,0,.9,1.56.69.69,0,0,0,1-.59A1.6,1.6,0,0,0,12,32.2a.91.91,0,0,0-.36-.08Z" transform="translate(0 0)" fill="#3d9bc2" stroke="#3d9bc2" stroke-miterlimit="10" stroke-width="0.25"/>
  <path d="M1.61,54.82a.23.23,0,0,1-.13,0,.23.23,0,0,1-.06-.32h0l2.21-3.12A.23.23,0,0,1,4,51.6L1.8,54.73A.23.23,0,0,1,1.61,54.82Z" transform="translate(0 0)" fill="#3d9bc2" stroke="#3d9bc2" stroke-miterlimit="10" stroke-width="0.25"/>
  <path d="M3.82,51.7h0a.23.23,0,0,1-.23-.23V44.22A.23.23,0,0,1,3.83,44h0a.23.23,0,0,1,.23.23v7.25a.23.23,0,0,1-.24.22Z" transform="translate(0 0)" fill="#3d9bc2" stroke="#3d9bc2" stroke-miterlimit="10" stroke-width="0.25"/>
  <ellipse cx="3.83" cy="44.11" rx="1.33" ry="1" transform="translate(-36.28 25.38) rotate(-60)" fill="#80c6dd"/>
  <path d="M3.56,45.61A1,1,0,0,1,3,45.47a1.43,1.43,0,0,1-.28-2,1.43,1.43,0,0,1,1.84-.74,1.11,1.11,0,0,1,.53.86,1.89,1.89,0,0,1-1,1.91A1.27,1.27,0,0,1,3.56,45.61ZM4.1,43.1a1.18,1.18,0,0,0-.93.64,1,1,0,0,0,.11,1.33.66.66,0,0,0,.6,0,1.43,1.43,0,0,0,.8-1.39.66.66,0,0,0-.3-.52A.55.55,0,0,0,4.1,43.1Z" transform="translate(0 0)" fill="#3d9bc2" stroke="#3d9bc2" stroke-miterlimit="10" stroke-width="0.25"/>
  <polygon points="12.06 63.27 1.37 60.64 6.65 57.77 17.34 60.41 12.06 63.27" fill="#3f9bc1"/>
  <path d="M12.06,63.74H12L1.26,61.09a.47.47,0,0,1-.11-.86l5.28-2.86a.47.47,0,0,1,.33,0L17.46,60a.47.47,0,0,1,.11.86l-5.28,2.86A.47.47,0,0,1,12.06,63.74ZM2.65,60.47,12,62.78l4.06-2.2L6.72,58.27Z" transform="translate(0 0)" fill="#3d9bc2"/>
  <polygon points="7.43 62.15 3.63 61.22 9.01 58.3 12.81 59.23 7.43 62.15" fill="#80c6dd"/>
  <path d="M7.43,62.38h0l-3.8-.93A.23.23,0,0,1,3.52,61L8.9,58.09a.23.23,0,0,1,.17,0l3.8.93a.23.23,0,0,1,.06.43l-5.39,2.9ZM4.27,61.13l3.13.77,4.77-2.59L9,58.54Z" transform="translate(0 0)" fill="#3d9bc2" stroke="#3d9bc2" stroke-miterlimit="10" stroke-width="0.25"/>
  <path d="M1.35,27.07a.23.23,0,0,1-.1-.44l2-1a.23.23,0,0,1,.2.42h0l-2,1Z" transform="translate(0 0)" fill="#3d9bc2" stroke="#3d9bc2" stroke-miterlimit="10" stroke-width="0.25"/>
  <path d="M17.42,49.26h-.1L12,46.65a.23.23,0,0,1,.2-.42l5.31,2.59a.23.23,0,0,1-.1.44Z" transform="translate(0 0)" fill="#3d9bc2" stroke="#3d9bc2" stroke-miterlimit="10" stroke-width="0.25"/>
  <ellipse cx="12.14" cy="46.45" rx="1" ry="1.34" fill="#98cfec"/>
  <path d="M12.14,48a1.62,1.62,0,0,1,0-3.15,1.62,1.62,0,0,1,0,3.15Zm0-2.68c-.42,0-.77.51-.77,1.11s.35,1.11.77,1.11.77-.51.77-1.11-.35-1.09-.77-1.09Z" transform="translate(0 0)" fill="#3d9bc2" stroke="#3d9bc2" stroke-miterlimit="10" stroke-width="0.25"/>
  <polygon points="8.21 38.23 6.43 37.82 6.43 31.16 8.21 31.57 8.21 38.23" fill="#c4e8f1"/>
  <path d="M8.21,38.46H8.16L6.38,38a.23.23,0,0,1-.18-.23v-6.6a.23.23,0,0,1,.22-.24h.06l1.78.41a.23.23,0,0,1,.18.23v6.66a.23.23,0,0,1-.23.23Zm-1.54-.83,1.31.3V31.76l-1.31-.3Z" transform="translate(0 0)" fill="#3d9bc2" stroke="#3d9bc2" stroke-miterlimit="10" stroke-width="0.25"/>
  <polygon points="2.72 39.74 6.56 37.82 6.56 31.16 2.72 33.09 2.72 39.74" fill="#92cfe7"/>
  <path d="M2.72,40a.24.24,0,0,1-.12,0,.23.23,0,0,1-.11-.2V33.09a.23.23,0,0,1,.13-.21L6.46,31a.23.23,0,0,1,.34.21v6.66a.23.23,0,0,1-.13.21L2.82,40ZM3,33.25v6.14L6.33,37.7V31.54Z" transform="translate(0 0)" fill="#3d9bc2" stroke="#3d9bc2" stroke-miterlimit="10" stroke-width="0.25"/>
  <path d="M6.43,18.58A.47.47,0,0,1,6,18.11V12.83a.47.47,0,1,1,.93,0v5.28a.47.47,0,0,1-.47.47Z" transform="translate(0 0)" fill="#3d9bc2"/>
  <path d="M6.14,14.58C6,14.87,5,17.31,3.54,17.27A2.5,2.5,0,0,1,1.66,15.7c-.2-.44-.79-2,1.5-6,1.84-3.17,4.6-6.34,5.21-6S6.68,6.56,6.6,11A8.54,8.54,0,0,1,6.14,14.58Z" transform="translate(0 0)" fill="#80c6dd"/>
  <path d="M3.15,9.74,9.72,1.45" transform="translate(0 0)" fill="#97d0ed"/>
  <path d="M3.15,10.2a.47.47,0,0,1-.36-.76L9.35,1.16a.47.47,0,0,1,.8.49l-.07.09L3.52,10A.46.46,0,0,1,3.15,10.2Z" transform="translate(0 0)" fill="#3d9bc2"/>
  <path d="M1.25,16.36a10.83,10.83,0,0,1,0-1.34,11,11,0,0,1,1.51-4.68A10.8,10.8,0,0,1,4,8.7" transform="translate(0 0)" fill="#80c6dd"/>
  <path d="M1.25,16.82a.47.47,0,0,1-.47-.45,11.29,11.29,0,0,1,2.86-8,.47.47,0,0,1,.7.62,10.34,10.34,0,0,0-2.62,7.33.47.47,0,0,1-.45.48Z" transform="translate(0 0)" fill="#3d9bc2"/>
  <path d="M6.43,15.3A18.9,18.9,0,0,1,7.48,7.81" transform="translate(0 0)" fill="#97d0ed"/>
  <path d="M6.43,15.76A.47.47,0,0,1,6,15.32,19.36,19.36,0,0,1,7,7.66.49.49,0,0,1,7.92,8h0a18.43,18.43,0,0,0-1,7.3.47.47,0,0,1-.44.49Z" transform="translate(0 0)" fill="#3d9bc2"/>
  <path d="M17.4,14.35h-.06L6.75,11.77a.23.23,0,0,1-.17-.28h0a.23.23,0,0,1,.28-.17h0L17.45,13.9a.23.23,0,0,1,0,.46Z" transform="translate(0 0)" fill="#3d9bc2" stroke="#3d9bc2" stroke-miterlimit="10" stroke-width="0.25"/>
  <path d="M4,14.71H4a.7.7,0,0,1-.7-.7V5.93a.7.7,0,0,1,.7-.7H4a.7.7,0,0,1,.7.7V14a.7.7,0,0,1-.69.71Z" transform="translate(0 0)" fill="#3d9bc2"/>
  <polygon points="5.22 14.16 3.08 16.15 3.33 10.34 4.74 8.49 5.22 14.16" fill="#80c6dd"/>
  <polygon points="8.82 58.09 12.62 58.99 12.57 51.99 8.93 51.16 8.82 58.09" fill="#c4e8f1"/>
  <path d="M12.62,59.22h-.05l-3.8-.9a.23.23,0,0,1-.18-.23l.1-6.93A.2.2,0,0,1,9,51l3.64.83a.23.23,0,0,1,.18.23l.05,7a.23.23,0,0,1-.23.23ZM9.06,57.91l3.33.79V52.18l-3.18-.72Z" transform="translate(0 0)" fill="#3d9bc2" stroke="#3d9bc2" stroke-miterlimit="10" stroke-width="0.25"/>
  <ellipse cx="3.65" cy="25.71" rx="1.33" ry="1" transform="translate(-20.44 16.02) rotate(-60)" fill="#80c6dd"/>
  <path d="M3.39,27.2a1,1,0,0,1-.51-.14,1.11,1.11,0,0,1-.53-.86,1.9,1.9,0,0,1,1.08-1.87,1.11,1.11,0,0,1,1,0h0a1.11,1.11,0,0,1,.53.86,1.89,1.89,0,0,1-1.08,1.87A1.27,1.27,0,0,1,3.39,27.2Zm.54-2.51a.8.8,0,0,0-.32.07,1.43,1.43,0,0,0-.8,1.39.66.66,0,0,0,.3.51.66.66,0,0,0,.6,0,1.43,1.43,0,0,0,.8-1.39.66.66,0,0,0-.3-.52h0a.56.56,0,0,0-.29-.06Z" transform="translate(0 0)" fill="#3d9bc2" stroke="#3d9bc2" stroke-miterlimit="10" stroke-width="0.25"/>
  <polyline points="15.65 28.67 15.71 22.11 10.07 20.63" fill="#98cfec"/>
  <path d="M15.65,28.93h0a.26.26,0,0,1-.26-.26h0l.05-6.36L10,20.88a.26.26,0,1,1,.07-.51h.06l5.64,1.47a.26.26,0,0,1,.19.25l-.05,6.56a.26.26,0,0,1-.25.27Z" transform="translate(0 0)" fill="#3d9bc2" stroke="#3d9bc2" stroke-miterlimit="10" stroke-width="0.25"/>
  <polyline points="8.67 28.31 14.21 29.73 15.63 28.7" fill="#98cfec"/>
  <path d="M14.21,30h-.06L8.6,28.56A.26.26,0,1,1,8.67,28h.06l5.43,1.39,1.32-1a.26.26,0,0,1,.3.42l-1.42,1A.26.26,0,0,1,14.21,30Z" transform="translate(0 0)" fill="#3d9bc2" stroke="#3d9bc2" stroke-miterlimit="10" stroke-width="0.25"/>
  <polyline points="10.06 20.64 8.7 21.62 8.64 28.18" fill="#98cfec"/>
  <path d="M8.64,28.44h0a.26.26,0,0,1-.26-.26h0l.06-6.56a.26.26,0,0,1,.11-.21l1.37-1a.26.26,0,1,1,.35.38l-.05,0L9,21.75l-.06,6.43a.26.26,0,0,1-.26.26Z" transform="translate(0 0)" fill="#3d9bc2" stroke="#3d9bc2" stroke-miterlimit="10" stroke-width="0.25"/>
  <ellipse cx="12.35" cy="24.84" rx="1.74" ry="2.33" transform="translate(-10.86 9.66) rotate(-30.39)" fill="#c4e8f1"/>
  <path d="M12.82,27.24a2,2,0,0,1-.79-.17,3,3,0,0,1-1.38-1.25,2.32,2.32,0,0,1,.4-3.19,1.76,1.76,0,0,1,1.6,0A3,3,0,0,1,14,23.84,2.32,2.32,0,0,1,13.6,27,1.6,1.6,0,0,1,12.82,27.24Zm-.95-4.38a1.15,1.15,0,0,0-.59.16h0A1.89,1.89,0,0,0,11,25.6a2.53,2.53,0,0,0,1.17,1.07,1.33,1.33,0,0,0,1.21,0,1.89,1.89,0,0,0,.25-2.58A2.53,2.53,0,0,0,12.49,23,1.6,1.6,0,0,0,11.87,22.86Zm-.7,0Z" transform="translate(0 0)" fill="#3d9bc2" stroke="#3d9bc2" stroke-miterlimit="10" stroke-width="0.25"/>
  <g style="isolation: isolate">
    <path d="M28.16,32.68a3.63,3.63,0,0,1-1.74.5,3.17,3.17,0,0,1-2.83-1.8,8.78,8.78,0,0,1-1.05-4.48A10.68,10.68,0,0,1,23,23.77a5.24,5.24,0,0,1,1.39-2.36,3.08,3.08,0,0,1,2.16-.88,3.51,3.51,0,0,1,1.61.45v2.8a1.71,1.71,0,0,0-1.29-.69,1.5,1.5,0,0,0-1.35,1A6.73,6.73,0,0,0,25,27a5.81,5.81,0,0,0,.5,2.61,1.48,1.48,0,0,0,1.31,1,2.08,2.08,0,0,0,1.32-.66Z" transform="translate(0 0)" fill="#3c9bc2"/>
    <path d="M31.52,20.73H34L36.74,33H34.06l-.37-2.43h-2L31.28,33H28.77Zm1.17,3.35L32,28.36h1.34Z" transform="translate(0 0)" fill="#3c9bc2"/>
    <path d="M37.54,20.73H40v9.76h3.39V33H37.54Z" transform="translate(0 0)" fill="#3c9bc2"/>
  </g>
  <g style="isolation: isolate">
    <g style="isolation: isolate">
      <path d="M22.86,36.81H25.3v4.74h1.95V36.81h2.46V49.07H27.25V43.94H25.3v5.13H22.86Z" transform="translate(0 0)" fill="#3c9bc2"/>
    </g>
    <g style="isolation: isolate">
      <path d="M33.29,36.81h2.44l2.78,12.26H35.84l-.37-2.44h-2l-.38,2.44H30.54Zm1.17,3.35-.68,4.28h1.34Z" transform="translate(0 0)" fill="#3c9bc2"/>
    </g>
    <g style="isolation: isolate">
      <path d="M44.46,48.76a3.63,3.63,0,0,1-1.74.5,3.18,3.18,0,0,1-2.83-1.8A8.78,8.78,0,0,1,38.84,43a10.65,10.65,0,0,1,.45-3.13,5.22,5.22,0,0,1,1.39-2.36,3.07,3.07,0,0,1,2.16-.88,3.51,3.51,0,0,1,1.61.45v2.8a1.71,1.71,0,0,0-1.29-.69,1.5,1.5,0,0,0-1.35,1,6.73,6.73,0,0,0-.49,2.9,5.81,5.81,0,0,0,.49,2.61,1.48,1.48,0,0,0,1.31,1A2.08,2.08,0,0,0,44.46,46Z" transform="translate(0 0)" fill="#3c9bc2"/>
      <path d="M45.69,36.81h2.46v4.42L50,36.81h2.43L50.39,41l2.37,8.08H50l-1.2-4.88-.66,1.35v3.53H45.69Z" transform="translate(0 0)" fill="#3c9bc2"/>
      <path d="M52.92,45.4a3.33,3.33,0,0,0,2.3,1.32,1.26,1.26,0,0,0,.95-.41,1.4,1.4,0,0,0,.39-1,1.37,1.37,0,0,0-.28-.84,3.88,3.88,0,0,0-1.07-.83,5.44,5.44,0,0,1-1.69-1.42,3.19,3.19,0,0,1-.59-2,3.77,3.77,0,0,1,.92-2.58,3.09,3.09,0,0,1,2.44-1,4.34,4.34,0,0,1,2.17.65v2.93a2.72,2.72,0,0,0-1.91-1.12,1.1,1.1,0,0,0-.79.32,1,1,0,0,0-.33.76,1.12,1.12,0,0,0,.27.76,3.26,3.26,0,0,0,1,.69A5.33,5.33,0,0,1,58.48,43a3.46,3.46,0,0,1,.61,2.15A4.26,4.26,0,0,1,58,48.06a3.3,3.3,0,0,1-2.57,1.21,5,5,0,0,1-2.54-.83Z" transform="translate(0 0)" fill="#3c9bc2"/>
    </g>
  </g>
</svg>
